# xmcd
# 
# Track frame offsets:
#     150
#     20532
#     39272
#     60470
#     77290
#     94505
#     115050
#     131287
#     155417
#     174687
#     197045
#     218900
#     235182
#     255272
#     274147
#     295687
#     315897
# 
# Disc length: 4399
# 
# Revision: 3
# Processed by: cddbd v1.5.2PL0 Copyright (c) Steve Scherf et al.
# Submitted via: fre:ac v1.0.17
# 
DISCID=d0112d11
DTITLE=Gloria Gaynor - Gloria Gaynor - I Will Survive
DYEAR=0
DGENRE=
TTITLE0=I'll Be There
TTITLE1=Never Can Say Goodbye
TTITLE2=Mighty High
TTITLE3=I Will Survive
TTITLE4=Strive
TTITLE5=The First, The Last, My Everything
TTITLE6=I Say A Little Prayer
TTITLE7=Oh Happy Day
TTITLE8=Remember
TTITLE9=I Am What I Am
TTITLE10=Try A Little Tenderness
TTITLE11=Reach Out I'll Be There
TTITLE12=Do It Yourself (If You Want)
TTITLE13=Wonderful Day
TTITLE14=How High The Moon
TTITLE15=I Choose Joy
TTITLE16=I Will Always Love You
EXTD=
EXTT0=
EXTT1=
EXTT2=
EXTT3=
EXTT4=
EXTT5=
EXTT6=
EXTT7=
EXTT8=
EXTT9=
EXTT10=
EXTT11=
EXTT12=
EXTT13=
EXTT14=
EXTT15=
EXTT16=
PLAYORDER=
